<?xml version="1.0" encoding="UTF-8" standalone="no"?>
<!-- Created with Inkscape (http://www.inkscape.org/) -->

<svg
   xmlns:dc="http://purl.org/dc/elements/1.1/"
   xmlns:cc="http://creativecommons.org/ns#"
   xmlns:rdf="http://www.w3.org/1999/02/22-rdf-syntax-ns#"
   xmlns:svg="http://www.w3.org/2000/svg"
   xmlns="http://www.w3.org/2000/svg"
   xmlns:xlink="http://www.w3.org/1999/xlink"
   xmlns:sodipodi="http://sodipodi.sourceforge.net/DTD/sodipodi-0.dtd"
   xmlns:inkscape="http://www.inkscape.org/namespaces/inkscape"
   width="64"
   version="1.1"
   height="64"
   id="svg703"
   sodipodi:docname="storeFullBag.svg"
   inkscape:version="0.92.3 (2405546, 2018-03-11)">
  <sodipodi:namedview
     pagecolor="#ffffff"
     bordercolor="#666666"
     borderopacity="1"
     objecttolerance="10"
     gridtolerance="10"
     guidetolerance="10"
     inkscape:pageopacity="0"
     inkscape:pageshadow="2"
     inkscape:window-width="1920"
     inkscape:window-height="1020"
     id="namedview705"
     showgrid="false"
     showguides="true"
     inkscape:zoom="1.4142136"
     inkscape:cx="34.56594"
     inkscape:cy="29.670806"
     inkscape:window-x="0"
     inkscape:window-y="0"
     inkscape:window-maximized="1"
     inkscape:current-layer="g849"
     inkscape:measure-start="-11.4021,51.0001"
     inkscape:measure-end="52.5027,46.5807">
    <inkscape:grid
       type="xygrid"
       id="grid1181" />
  </sodipodi:namedview>
  <defs
     id="defs5455">
    <linearGradient
       inkscape:collect="always"
       id="linearGradient1172">
      <stop
         style="stop-color:#e6e6e6;stop-opacity:1;"
         offset="0"
         id="stop1168" />
      <stop
         style="stop-color:#e6e6e6;stop-opacity:0;"
         offset="1"
         id="stop1170" />
    </linearGradient>
    <linearGradient
       id="linearGradient4172">
      <stop
         style="stop-color:#3bad7e"
         id="stop4174" />
      <stop
         offset="1"
         style="stop-color:#45cc87"
         id="stop4176" />
    </linearGradient>
    <filter
       inkscape:collect="always"
       style="color-interpolation-filters:sRGB"
       id="filter4702"
       x="-0.0083125701"
       width="1.0166251"
       y="-0.021567095"
       height="1.0431342">
      <feGaussianBlur
         inkscape:collect="always"
         stdDeviation="0.0055599843"
         id="feGaussianBlur4704" />
    </filter>
    <filter
       inkscape:collect="always"
       style="color-interpolation-filters:sRGB"
       id="filter934"
       x="-0.01747465"
       width="1.0349493"
       y="-0.038303049"
       height="1.0766061">
      <feGaussianBlur
         inkscape:collect="always"
         stdDeviation="0.2507715"
         id="feGaussianBlur936" />
    </filter>
    <filter
       inkscape:collect="always"
       style="color-interpolation-filters:sRGB"
       id="filter1125"
       x="-0.018468989"
       width="1.036938"
       y="-0.70884723"
       height="2.4176945">
      <feGaussianBlur
         inkscape:collect="always"
         stdDeviation="0.44633411"
         id="feGaussianBlur1127" />
    </filter>
    <radialGradient
       inkscape:collect="always"
       xlink:href="#linearGradient1172"
       id="radialGradient1174"
       cx="416.57142"
       cy="509.09586"
       fx="416.57142"
       fy="509.09586"
       r="17.220705"
       gradientTransform="matrix(1,0,0,0.45622087,0,276.8357)"
       gradientUnits="userSpaceOnUse" />
    <filter
       style="color-interpolation-filters:sRGB"
       id="filter3809"
       inkscape:label="Desaturate"
       x="0"
       y="0"
       width="1"
       height="1"
       inkscape:menu="Color"
       inkscape:menu-tooltip="Render in shades of gray by reducing saturation to zero">
      <feColorMatrix
         id="feColorMatrix3811"
         type="saturate"
         values="0" />
    </filter>
    <filter
       style="color-interpolation-filters:sRGB"
       id="filter3826"
       inkscape:label="Desaturate"
       inkscape:menu="Color"
       inkscape:menu-tooltip="Render in shades of gray by reducing saturation to zero"
       x="0"
       y="0"
       width="1"
       height="1">
      <feGaussianBlur
         id="feGaussianBlur3828"
         result="result6"
         stdDeviation="1.5" />
      <feComposite
         id="feComposite3830"
         in2="result6"
         operator="atop"
         in="SourceGraphic"
         result="result8" />
      <feComposite
         id="feComposite3832"
         in2="SourceAlpha"
         in="result8"
         operator="atop"
         result="fbSourceGraphic" />
      <feColorMatrix
         result="fbSourceGraphicAlpha"
         in="fbSourceGraphic"
         values="0 0 0 -1 0 0 0 0 -1 0 0 0 0 -1 0 0 0 0 1 0"
         id="feColorMatrix3805" />
      <feColorMatrix
         id="feColorMatrix3807"
         type="saturate"
         values="0"
         in="fbSourceGraphic" />
    </filter>
    <filter
       style="color-interpolation-filters:sRGB"
       id="filter3829"
       inkscape:label="Desaturate"
       x="0"
       y="0"
       width="1"
       height="1"
       inkscape:menu="Color"
       inkscape:menu-tooltip="Render in shades of gray by reducing saturation to zero">
      <feColorMatrix
         id="feColorMatrix3831"
         type="saturate"
         values="0" />
    </filter>
    <filter
       style="color-interpolation-filters:sRGB"
       id="filter3809-6"
       inkscape:label="Desaturate"
       x="0"
       y="0"
       width="1"
       height="1"
       inkscape:menu="Color"
       inkscape:menu-tooltip="Render in shades of gray by reducing saturation to zero">
      <feColorMatrix
         id="feColorMatrix3811-6"
         type="saturate"
         values="0" />
    </filter>
    <filter
       style="color-interpolation-filters:sRGB"
       id="filter3826-0"
       inkscape:label="Desaturate"
       inkscape:menu="Color"
       inkscape:menu-tooltip="Render in shades of gray by reducing saturation to zero"
       x="0"
       y="0"
       width="1"
       height="1">
      <feGaussianBlur
         id="feGaussianBlur3828-4"
         result="result6"
         stdDeviation="1.5" />
      <feComposite
         id="feComposite3830-7"
         in2="result6"
         operator="atop"
         in="SourceGraphic"
         result="result8" />
      <feComposite
         id="feComposite3832-0"
         in2="SourceAlpha"
         in="result8"
         operator="atop"
         result="fbSourceGraphic" />
      <feColorMatrix
         result="fbSourceGraphicAlpha"
         in="fbSourceGraphic"
         values="0 0 0 -1 0 0 0 0 -1 0 0 0 0 -1 0 0 0 0 1 0"
         id="feColorMatrix3805-6" />
      <feColorMatrix
         id="feColorMatrix3807-6"
         type="saturate"
         values="0"
         in="fbSourceGraphic" />
    </filter>
    <filter
       style="color-interpolation-filters:sRGB"
       id="filter3829-2"
       inkscape:label="Desaturate"
       x="0"
       y="0"
       width="1"
       height="1"
       inkscape:menu="Color"
       inkscape:menu-tooltip="Render in shades of gray by reducing saturation to zero">
      <feColorMatrix
         id="feColorMatrix3831-2"
         type="saturate"
         values="0" />
    </filter>
    <filter
       inkscape:collect="always"
       style="color-interpolation-filters:sRGB"
       id="filter1243"
       x="-0.0056896552"
       width="1.0113793"
       y="-0.0063461538"
       height="1.0126923">
      <feGaussianBlur
         inkscape:collect="always"
         stdDeviation="0.1375"
         id="feGaussianBlur1245" />
    </filter>
    <linearGradient
       id="k"
       gradientUnits="userSpaceOnUse"
       x1="42"
       x2="62"
       y1="24"
       y2="44">
      <stop
         offset="0"
         stop-color="#292c2f"
         id="stop28" />
      <stop
         offset="1"
         stop-opacity="0"
         id="stop30" />
    </linearGradient>
    <linearGradient
       id="l"
       gradientUnits="userSpaceOnUse"
       x1="44"
       x2="44"
       xlink:href="#d"
       y1="44"
       y2="13" />
    <linearGradient
       id="d"
       gradientUnits="userSpaceOnUse"
       x2="0"
       y1="30"
       y2="8">
      <stop
         offset="0"
         stop-color="#cfd2d5"
         id="stop17" />
      <stop
         offset="1"
         stop-color="#eff0f1"
         id="stop19" />
    </linearGradient>
    <linearGradient
       id="a"
       y1="40"
       x1="43"
       y2="4"
       x2="13"
       gradientUnits="userSpaceOnUse">
      <stop
         stop-color="#f27935"
         id="stop2" />
      <stop
         offset="1"
         stop-color="#f2784b"
         id="stop4" />
    </linearGradient>
    <linearGradient
       id="b"
       y1="27.129999"
       x1="24.129999"
       y2="41"
       x2="38"
       gradientUnits="userSpaceOnUse">
      <stop
         stop-color="#292c2f"
         id="stop7" />
      <stop
         offset="1"
         stop-opacity="0"
         id="stop9" />
    </linearGradient>
    <linearGradient
       xlink:href="#linearGradient4235"
       id="linearGradient4233"
       x1="18"
       y1="4"
       x2="18"
       y2="44"
       gradientUnits="userSpaceOnUse" />
    <linearGradient
       id="linearGradient4235">
      <stop
         id="stop4237"
         style="stop-color:#f85b79;stop-opacity:1;"
         offset="0" />
      <stop
         id="stop4243"
         style="stop-color:#f85b79;stop-opacity:1;"
         offset="1" />
    </linearGradient>
    <linearGradient
       gradientTransform="translate(60)"
       xlink:href="#m"
       id="linearGradient4702"
       x1="-56"
       y1="4"
       x2="-16"
       y2="44"
       gradientUnits="userSpaceOnUse" />
    <linearGradient
       gradientTransform="translate(85,55)"
       id="m"
       y1="7"
       x1="10"
       y2="32"
       x2="35"
       gradientUnits="userSpaceOnUse">
      <stop
         stop-color="#383e51"
         id="stop27" />
      <stop
         offset="1"
         stop-color="#655c6f"
         stop-opacity="0"
         id="stop29" />
    </linearGradient>
    <linearGradient
       gradientUnits="userSpaceOnUse"
       y2="503.67001"
       x2="408.63199"
       y1="543.77301"
       x1="408.57101"
       id="linearGradient4415"
       xlink:href="#linearGradient4299" />
    <linearGradient
       id="linearGradient4299">
      <stop
         id="stop1080"
         style="stop-color:#1064d3;stop-opacity:1"
         offset="0" />
      <stop
         id="stop1082"
         style="stop-color:#14c6fd;stop-opacity:1"
         offset="1" />
    </linearGradient>
    <linearGradient
       gradientUnits="userSpaceOnUse"
       y2="42.952999"
       x2="42.945999"
       y1="9.0830002"
       x1="9.0769997"
       id="linearGradient4392"
       xlink:href="#linearGradient4154" />
    <linearGradient
       id="linearGradient4154">
      <stop
         id="stop835"
         style="stop-color:#000000;stop-opacity:1"
         offset="0" />
      <stop
         id="stop837"
         style="stop-color:#000000;stop-opacity:0"
         offset="1" />
    </linearGradient>
    <linearGradient
       gradientTransform="matrix(0.96481792,0,0,0.96481792,14.374377,18.428304)"
       gradientUnits="userSpaceOnUse"
       y2="512.39697"
       x2="408.57101"
       y1="535.19897"
       x1="408.57101"
       id="linearGradient4437"
       xlink:href="#linearGradient4227" />
    <linearGradient
       id="linearGradient4227">
      <stop
         id="stop1074"
         style="stop-color:#2e3436;stop-opacity:1"
         offset="0" />
      <stop
         id="stop1076"
         style="stop-color:#555753;stop-opacity:1"
         offset="1" />
    </linearGradient>
    <linearGradient
       gradientTransform="translate(5e-6)"
       y2="4"
       x2="25"
       y1="44"
       x1="25"
       gradientUnits="userSpaceOnUse"
       id="linearGradient4151"
       xlink:href="#linearGradient4141" />
    <linearGradient
       id="linearGradient4141">
      <stop
         id="stop1349"
         offset="0"
         style="stop-color:#d8610f;stop-opacity:1" />
      <stop
         id="stop1351"
         offset="1"
         style="stop-color:#eab355;stop-opacity:1" />
    </linearGradient>
    <linearGradient
       gradientTransform="translate(0,-1004.3622)"
       gradientUnits="userSpaceOnUse"
       y2="1046.3621"
       x2="44"
       y1="1018.362"
       x1="16"
       id="linearGradient4183"
       xlink:href="#linearGradient4154" />
    <linearGradient
       gradientTransform="translate(-5.9283447e-6,1.1108398e-5)"
       gradientUnits="userSpaceOnUse"
       y2="503.798"
       x2="0"
       y1="543.79797"
       id="0"
       xlink:href="#1" />
    <linearGradient
       id="1">
      <stop
         id="stop1197"
         stop-color="#197cf1" />
      <stop
         id="stop1199"
         stop-color="#20bcfa"
         offset="1" />
    </linearGradient>
    <linearGradient
       gradientTransform="translate(0,-1004.3622)"
       gradientUnits="userSpaceOnUse"
       y2="1008.362"
       x2="24"
       y1="1048.3621"
       x1="24"
       id="linearGradient4723"
       xlink:href="#linearGradient4717" />
    <linearGradient
       id="linearGradient4717">
      <stop
         id="stop975"
         offset="0"
         style="stop-color:#12375a;stop-opacity:1" />
      <stop
         id="stop977"
         offset="1"
         style="stop-color:#537596;stop-opacity:1" />
    </linearGradient>
    <linearGradient
       gradientUnits="userSpaceOnUse"
       y2="35"
       x2="40"
       y1="11"
       x1="16"
       id="linearGradient4182-1"
       xlink:href="#linearGradient4154" />
  </defs>
  <metadata
     id="metadata5458">
    <rdf:RDF>
      <cc:Work
         rdf:about="">
        <dc:format>image/svg+xml</dc:format>
        <dc:type
           rdf:resource="http://purl.org/dc/dcmitype/StillImage" />
        <dc:title />
      </cc:Work>
    </rdf:RDF>
  </metadata>
  <g
     inkscape:label="Capa 1"
     inkscape:groupmode="layer"
     id="layer1"
     transform="translate(-384.57143,-483.798)"
     style="display:inline">
    <path
       style="display:inline;fill:#004455;fill-opacity:1;stroke-width:1.32289922;filter:url(#filter1243)"
       d="m 394.57001,489.79827 v 1.16602 l 0.25279,3.35876 -3.27037,1.21155 -3.98242,1.37695 v 8.88672 15.17188 19.82812 1 h 1 56 1 v -1 -19.82812 -24.0586 l -5.75586,-1.99218 v 0 l -1.28304,-0.41901 v 0 l 0.0389,-3.97748 v -0.72461 h -5 -34 z"
       id="rect829-9-1-0-2"
       inkscape:connector-curvature="0"
       sodipodi:nodetypes="cccccccccccccccccccccccc" />
    <ellipse
       style="opacity:1;fill:#999999;fill-opacity:1;fill-rule:nonzero;stroke:none;stroke-width:1.5;stroke-miterlimit:4;stroke-dasharray:none;stroke-opacity:1"
       id="path4647"
       cx="459.1636"
       cy="517.31732"
       rx="0.35355338"
       ry="0.17677669" />
    <text
       xml:space="preserve"
       style="font-style:normal;font-weight:normal;font-size:40px;line-height:1.25;font-family:sans-serif;letter-spacing:0px;word-spacing:0px;fill:#000000;fill-opacity:1;stroke:none"
       x="395.70837"
       y="529.76678"
       id="text904"><tspan
         sodipodi:role="line"
         id="tspan902"
         x="395.70837"
         y="566.26001" /></text>
    <rect
       style="display:inline;fill:#004455;fill-opacity:1;stroke-width:1.32289922"
       id="rect829-9-1-0"
       width="43.999985"
       height="50.000092"
       x="394.57144"
       y="489.798"
       ry="0" />
    <path
       style="fill:#2c89a0;fill-opacity:1;stroke-width:1.41100538"
       d="m 399.57143,489.798 h 34 5 l -2,4 9.00001,3.1139 v 24.05788 c 0,5.28902 -5.36802,9.54696 -12.03592,9.54696 h -33.92819 c -6.6679,0 -12.03592,-4.25794 -12.03592,-9.54696 V 496.9119 l 9.00002,-3.1139 -2,-4 z"
       id="rect829"
       inkscape:connector-curvature="0"
       sodipodi:nodetypes="cccccsssscccc" />
    <path
       style="display:inline;opacity:0.57094595;fill:#80e5ff;fill-opacity:1;stroke-width:1.41100538"
       d="m 399.57143,489.798 h 34 5 l -2,4 9.00001,3.1139 v 24.05788 c 0,5.28902 -5.36802,9.54696 -12.03592,9.54696 h -33.92819 c -6.6679,0 -12.03592,-4.25794 -12.03592,-9.54696 V 496.9119 l 9.00002,-3.1139 -2,-4 z"
       id="rect829-92"
       inkscape:connector-curvature="0"
       sodipodi:nodetypes="cccccsssscccc" />
    <rect
       style="display:inline;opacity:0.581;fill:#008080;fill-opacity:1;stroke:none;stroke-width:0.32789949"
       id="rect885-3"
       width="21.721973"
       height="51.000107"
       x="416.84943"
       y="489.798" />
    <path
       inkscape:connector-curvature="0"
       style="fill:#006680;fill-opacity:1"
       id="path4151-2"
       d="m 387.57143,540.79811 v 1 h 1 56 1 v -1 h -1 -56 z" />
    <rect
       style="opacity:0;fill:#000000;fill-opacity:1;stroke:#ff0000;stroke-width:0.37795275"
       id="rect1652"
       width="44.636116"
       height="15.998291"
       x="395.08963"
       y="490.52234" />
    <rect
       style="opacity:0;fill:#000000;fill-opacity:1;stroke:#ff0000;stroke-width:0.37795275"
       id="rect1702"
       width="13.611806"
       height="3.0052037"
       x="413.47443"
       y="494.94177" />
    <rect
       style="opacity:0;fill:#000000;fill-opacity:1;stroke:#ff0000;stroke-width:0.37795275"
       id="rect1704"
       width="32.70369"
       height="7.8665628"
       x="397.38773"
       y="489.81525" />
    <rect
       style="opacity:0;fill:#000000;fill-opacity:1;fill-rule:nonzero;stroke:#ff0000;stroke-width:4.77800035;stroke-miterlimit:4;stroke-dasharray:none"
       id="rect838"
       width="48.260052"
       height="19.0035"
       x="391.55411"
       y="490.96429" />
    <ellipse
       style="opacity:0;fill:#550000;fill-opacity:1;fill-rule:nonzero;stroke:#ff0000;stroke-width:1.278;stroke-miterlimit:4;stroke-dasharray:none"
       id="path840"
       cx="411.04373"
       cy="496.70953"
       rx="6.8500967"
       ry="6.3639607" />
    <path
       style="opacity:1;fill:#37c871;fill-opacity:1;stroke:#1a1a1a;stroke-width:1.69435644;stroke-opacity:0;filter:url(#filter3809)"
       d="m 32.413998,9.9500086 c -11.958523,0 -21.65625,9.6977264 -21.65625,21.6562494 0,11.958523 9.697727,21.65625 21.65625,21.65625 11.958523,0 21.65625,-9.697727 21.65625,-21.65625 0,-11.958523 -9.697727,-21.6562494 -21.65625,-21.6562494 z m -0.125,3.4999994 c 10.098309,0 18.28125,8.182942 18.28125,18.28125 0,10.098308 -8.182941,18.28125 -18.28125,18.28125 -10.098309,0 -18.28125,-8.182942 -18.28125,-18.28125 0,-10.098308 8.182941,-18.28125 18.28125,-18.28125 z"
       id="path3803"
       inkscape:connector-curvature="0"
       transform="matrix(0.60898578,0,0,0.60624161,381.55319,507.88706)" />
    <rect
       style="display:inline;fill:#3cb17f;fill-opacity:1;stroke-width:1.18752372"
       id="rect829-9"
       width="58.000027"
       height="30.565123"
       x="387.57141"
       y="510.23297"
       ry="0" />
    <ellipse
       style="display:inline;opacity:1;fill:#4d4d4d;fill-opacity:1;fill-rule:nonzero;stroke:none;stroke-width:0.33825761;stroke-miterlimit:4;stroke-dasharray:none;stroke-opacity:1;filter:url(#filter4702)"
       id="path4641-0"
       cx="432.98618"
       cy="506.95163"
       rx="0.80263758"
       ry="0.30935928" />
    <rect
       style="display:inline;opacity:0.45899999;fill:#333333;fill-opacity:1;stroke-width:0.26405144;filter:url(#filter1125)"
       id="rect829-9-1-2"
       width="58.000027"
       height="1.5111886"
       x="387.57141"
       y="496.9119"
       ry="0.55398369"
       transform="matrix(0.87930991,0,0,1.0771847,50.776049,-38.467897)" />
    <path
       style="display:inline;opacity:1;fill:#008080;fill-opacity:1;stroke:none;stroke-width:0.28127548"
       d="m 436.57143,493.798 9,3.1139 -1e-5,8.88611 h -8.99999 z"
       id="rect1259-1"
       inkscape:connector-curvature="0"
       sodipodi:nodetypes="ccccc" />
    <path
       style="opacity:0.47000002;fill:#004455;fill-opacity:1;stroke:none;stroke-width:0.28127548"
       d="m 387.57141,496.9119 9.00002,-3.1139 v 12.00001 h -8.99999 z"
       id="rect1259"
       inkscape:connector-curvature="0"
       sodipodi:nodetypes="ccccc" />
    <ellipse
       style="fill:#00aad4;fill-opacity:1;stroke:#1a1a1a;stroke-width:0.963678;stroke-opacity:0"
       id="path3925"
       cx="401.29285"
       cy="527.04816"
       rx="13.149452"
       ry="13.21519" />
    <g
       transform="matrix(0.60446031,0,0,0.60446031,395.04787,489.64777)"
       id="g1418">
      <g
         style="stroke-width:6;stroke-linejoin:round"
         transform="translate(-7.9322034,-1.4237288)"
         id="g22">
        <path
           inkscape:connector-curvature="0"
           style="fill:url(#a)"
           id="path14"
           d="M 11,4 C 9.338,4 8,5.338 8,7 v 22.08 a 7.999994,7.999994 0 0 0 -4,6.916016 7.999994,7.999994 0 0 0 8,8 7.999994,7.999994 0 0 0 6.919922,-4 h 22.08 c 1.662,0 3,-1.338 3,-3 v -30 c 0,-1.662 -1.338,-3 -3,-3 z" />
        <path
           inkscape:connector-curvature="0"
           style="opacity:0.2;fill:url(#b)"
           id="path16"
           d="M 26,21.75 12,20 l 6,6 -6,2 12,12 h 17 c 1.662,0 2,-1.25 2,-1.25 z m -11.172,11.422 -5.656,5.656 4.889,4.891 C 16.11,43.172 17.857,41.835 18.92,40 h 2.738 z" />
        <path
           style="fill:#b86333"
           inkscape:connector-curvature="0"
           id="path18"
           d="M 4.02344,35.488281 A 7.999994,7.999994 0 0 0 4,36 a 7.999994,7.999994 0 0 0 8,8 7.999994,7.999994 0 0 0 6.919922,-4 H 41 c 1.662,0 3,-1.338 3,-3 v -1 c 0,1.662 -1.338,3 -3,3 H 18.92 A 7.999994,7.999994 0 0 1 12,43 7.999994,7.999994 0 0 1 4.02344,35.488281" />
        <path
           style="fill:#ffffff"
           inkscape:connector-curvature="0"
           id="path20"
           d="m 12,16 v 4 c 8.837,0 16,7.163 16,16 h 4 C 32,24.95 23.046,16 12,16 m 0,8 v 4 c 4.418,0 8,3.582 8,8 h 4 C 24,29.373 18.627,24 12,24 m 0,8 c -2.209,0 -4,1.791 -4,4 0,2.209 1.791,4 4,4 2.209,0 4,-1.791 4,-4 0,-2.209 -1.791,-4 -4,-4" />
      </g>
      <g
         transform="translate(3.0677966,-1.6737288)"
         id="g929">
        <rect
           width="40"
           height="40"
           rx="2"
           ry="2"
           x="4"
           y="4"
           id="rect5505-21"
           style="color:#000000;display:inline;overflow:visible;visibility:visible;fill:url(#linearGradient4233);fill-opacity:1;fill-rule:nonzero;stroke:none;stroke-width:1.0666666;marker:none;enable-background:accumulate" />
        <path
           inkscape:connector-curvature="0"
           id="path4694"
           d="M 8,29 23,44 H 44 V 20 l -4,-4 h -5 l -2,-2 -5,3 2,2 H 28 L 26.5,18 H 24 l -4,-4 -5,3 2,2 h -1 l -3,-3 v 3 H 8 l 2,2 -2,3 2,2 z"
           style="opacity:0.2;fill:url(#linearGradient4702);fill-opacity:1;fill-rule:evenodd;stroke:none;stroke-width:1px;stroke-linecap:butt;stroke-linejoin:miter;stroke-opacity:1" />
        <path
           inkscape:connector-curvature="0"
           id="rect3834-3-39-6"
           d="m 15,14 v 3 h 5 v -3 z m 13,0 v 3 h 5 V 14 Z M 8,16 v 3 h 5 v -3 z m 27,0 v 3 h 5 v -3 z m -13.5,2 v 3 h 5 V 18 Z M 15,19 v 3 h 5 v -3 z m 13,0 v 3 h 5 V 19 Z M 8,21 v 3 h 5 v -3 z m 27,0 v 3 h 5 v -3 z m -13.5,2 v 3 h 5 V 23 Z M 15,24 v 3 h 5 v -3 z m 13,0 v 3 h 5 V 24 Z M 8,26 v 3 h 5 v -3 z m 27,0 v 3 h 5 v -3 z m -13.5,2 v 3 h 5 V 28 Z M 15,29 v 3 h 5 v -3 z m 13,0 v 3 h 5 v -3 z m -6.5,4 v 3 h 5 v -3 z"
           style="color:#000000;display:inline;overflow:visible;visibility:visible;fill:#fffbfb;fill-opacity:1;fill-rule:nonzero;stroke:none;stroke-width:1.13690269;marker:none;enable-background:accumulate" />
        <path
           inkscape:connector-curvature="0"
           id="rect4743"
           d="M 4.2753906,43 C 4.6209515,43.595799 5.2589301,44 6,44 h 36 c 0.74107,0 1.379048,-0.404201 1.724609,-1 z"
           style="opacity:0.15;fill:#000000;fill-opacity:1;stroke:none;stroke-width:3;stroke-miterlimit:4;stroke-dasharray:none;stroke-opacity:1" />
      </g>
      <g
         transform="translate(-371.50363,-502.47173)"
         id="g1098">
        <rect
           style="fill:url(#linearGradient4415);fill-opacity:1"
           width="40"
           height="40"
           x="388.57001"
           y="503.79999"
           ry="3"
           rx="3"
           id="rect1088" />
        <path
           inkscape:connector-curvature="0"
           style="opacity:0.2;fill:#000000;fill-opacity:1"
           d="m 4,40 v 1 c 0,1.662 1.338,3 3,3 h 34 c 1.662,0 3,-1.338 3,-3 v -1 c 0,1.662 -1.338,3 -3,3 H 7 C 5.338,43 4,41.662 4,40 Z"
           transform="translate(384.57143,499.798)"
           id="path1090" />
        <path
           inkscape:connector-curvature="0"
           style="opacity:0.2;fill:url(#linearGradient4392);fill-opacity:1;stroke:none;stroke-width:2;stroke-linecap:butt;stroke-linejoin:round;stroke-miterlimit:4;stroke-dasharray:none;stroke-opacity:1"
           d="M 38.326172,9.4023438 9.3867188,38.341797 15.044922,44 H 41 c 1.662,0 3,-1.338 3,-3 V 15.076172 Z"
           transform="translate(384.57143,499.798)"
           id="path1092" />
        <rect
           style="fill:#f8f8f8;fill-opacity:1;stroke:none;stroke-width:11.24999905"
           width="30"
           height="30"
           x="393.57001"
           y="508.79999"
           rx="1.822"
           ry="1.822"
           id="rect1094" />
        <path
           inkscape:connector-curvature="0"
           style="fill:url(#linearGradient4437);fill-opacity:1;stroke:none;stroke-width:3.17499971"
           d="M 397.57143,512.79801 V 534.798 h 4.88889 5.11111 v -5 h -5 v -12 h 5 v -4.99999 h -5.11111 z m 12,0 v 4.99999 h 5 v 12 h -5 v 5 h 5.11111 4.88889 v -22 h -4.88889 -5.11111 z"
           id="path1096" />
      </g>
      <g
         transform="translate(21.263114,-2.8417288)"
         id="g1384">
        <rect
           style="opacity:1;fill:url(#linearGradient4151);fill-opacity:1;stroke:none"
           width="40"
           height="40"
           x="4"
           y="4"
           ry="3"
           rx="3"
           id="rect1358" />
        <path
           inkscape:connector-curvature="0"
           style="opacity:0.2;fill:url(#linearGradient4183);fill-opacity:1;stroke:none;stroke-width:2;stroke-linecap:butt;stroke-linejoin:round;stroke-miterlimit:4;stroke-dasharray:none;stroke-opacity:1"
           d="m 25.308589,11.3301 -14.115235,14.1152 5.667969,5.666 -2.05664,2.0567 L 25.636714,44 h 15.363281 c 1.662,0 3,-1.338 3,-3 V 25.707 l -10.867188,-10.8672 -2.15625,2.1563 z"
           id="path1360" />
        <path
           inkscape:connector-curvature="0"
           style="opacity:0.15;fill:#000000;fill-opacity:1"
           d="m 3.999995,40 v 1 c 0,1.662 1.338,3 3,3 h 34 c 1.662,0 3,-1.338 3,-3 v -1 c 0,1.662 -1.338,3 -3,3 h -34 c -1.662,0 -3,-1.338 -3,-3 z"
           id="path1362" />
        <path
           inkscape:connector-curvature="0"
           style="opacity:1;fill:#ffffff;fill-opacity:1;fill-rule:nonzero;stroke:none;stroke-width:10.89999962;stroke-miterlimit:4;stroke-dasharray:none;stroke-opacity:0.50273222"
           d="m 23.607415,11.002 c -0.72528,0.027 -1.12297,0.2699 -1.38281,0.7929 -0.1667,0.3356 -0.30258,0.8943 -0.30273,1.2422 -5.4e-4,1.2763 -1.28975,2.4414 -2.70313,2.4414 -0.6935,0 -1.07422,-0.1905 -2.47852,-1.2422 -0.63918,-0.4787 -1.04342,-0.3552 -2.03515,0.6211 -0.9422,0.9277 -0.9651,1.3715 -0.13086,2.4785 0.34476,0.4576 0.69349,1.0681 0.77539,1.3575 0.20259,0.7155 -0.12946,2.0252 -0.66211,2.6074 -0.43658,0.4772 -1.5195,0.8496 -2.46484,0.8496 -0.89895,0 -1.22266,0.5113 -1.22266,1.9277 0,1.1029 0.0417,1.2529 0.41992,1.5039 0.23112,0.1535 0.89977,0.3477 1.48633,0.4317 0.58659,0.084 1.26284,0.2827 1.50195,0.4414 0.50483,0.3351 1.09071,1.5349 1.09571,2.2461 0.004,0.5163 -0.39315,1.4288 -0.80274,1.8437 -0.44642,0.4522 -0.77384,1.2751 -0.65625,1.6504 0.15065,0.4808 1.17075,1.5094 1.69922,1.7129 0.30269,0.1166 0.52332,0.083 0.81641,-0.125 0.85907,-0.6095 2.32831,-1.2715 2.82422,-1.2715 0.74764,0 1.98779,0.66 2.25976,1.2031 0.12804,0.2558 0.28767,0.8509 0.35547,1.3223 0.16437,1.1433 0.42541,1.6825 0.86133,1.7754 0.19818,0.042 0.51634,0.1125 0.70703,0.1563 v 0 c 0.19069,0.045 0.6194,0.045 0.95312,0 0.87043,-0.1169 1.33428,-0.7653 1.48047,-2.0704 0.13367,-1.1933 0.24434,-1.3853 1.12305,-1.9472 0.89229,-0.5706 1.59085,-0.6819 2.27734,-0.3633 0.56919,0.2642 0.79877,0.4009 1.73243,1.0234 0.68408,0.4562 1.10963,0.3799 1.90039,-0.3437 1.18898,-1.0881 1.2138,-1.5598 0.14843,-2.8028 -1.01411,-1.183 -1.02637,-2.6398 -0.0293,-3.7578 0.38182,-0.4281 0.72453,-0.5767 1.85547,-0.8027 1.70756,-0.3412 1.98523,-0.62 1.99023,-2.0059 0.005,-1.3842 -0.21502,-1.6102 -1.81836,-1.8613 -1.5256,-0.2389 -2.01475,-0.5829 -2.55078,-1.791 -0.44569,-1.0045 -0.32223,-1.5935 0.62891,-2.9727 0.48775,-0.7072 0.72992,-1.2238 0.67382,-1.4414 -0.12537,-0.4856 -1.70452,-1.9336 -2.10937,-1.9336 -0.18748,0 -0.68681,0.269 -1.10938,0.5957 -1.16562,0.9014 -1.86079,1.105 -2.85742,0.8379 -1.17104,-0.3137 -1.58705,-0.8089 -1.88281,-2.2382 -0.33967,-1.6415 -0.55907,-1.9366 -1.52539,-2.0469 -0.32197,-0.037 -0.60004,-0.052 -0.8418,-0.043 z"
           id="path1364" />
        <path
           inkscape:connector-curvature="0"
           style="opacity:1;fill:#e89643;fill-opacity:1;fill-rule:nonzero;stroke:none;stroke-width:10.89999962;stroke-miterlimit:4;stroke-dasharray:none;stroke-opacity:0.50273222"
           d="m 23.999995,19 a 5,5 0 0 1 5,5 5,5 0 0 1 -5,5 5,5 0 0 1 -5,-5 5,5 0 0 1 5,-5 z"
           id="path1366" />
      </g>
      <g
         transform="translate(-360.20607,-502.7472)"
         id="g1210">
        <rect
           style="fill:url(#0)"
           width="40"
           height="40"
           x="388.57001"
           y="503.79999"
           rx="20"
           id="rect1204" />
        <path
           style="fill:#0c69cf"
           inkscape:connector-curvature="0"
           d="M 4.0117188,23.5 C 4.007647,23.666859 4,23.832126 4,24 4,35.079992 12.920008,44 24,44 35.079992,44 44,35.079992 44,24 44,23.832126 43.9924,23.666859 43.98828,23.5 43.724099,34.346571 34.912435,43 24,43 13.087565,43 4.2759007,34.346571 4.0117188,23.5 Z"
           transform="translate(384.57143,499.798)"
           id="path1206" />
        <path
           style="fill:#ecf0f1;fill-rule:evenodd"
           inkscape:connector-curvature="0"
           d="m 409.78685,507.798 c 3.93874,3.40021 4.92347,6.84669 4.92347,12.26249 l 1.61555,-4.185 c 1.70085,1.67225 2.86007,3.88792 3.20027,6.36972 0.1252,1.90845 -0.1864,3.59799 -0.67873,5.07501 2.00911,-1.27923 4.54669,-2.74105 5.6329,-5.07501 -0.72501,-7.72267 -6.93245,-13.8567 -14.69346,-14.44721 z m -2.76822,0.0911 c -7.72267,0.72501 -13.85669,6.93236 -14.4472,14.69333 3.40025,-3.93874 6.84658,-4.92333 12.26236,-4.92333 l -4.18487,-1.61556 c 1.67226,-1.70084 3.88791,-2.85996 6.36971,-3.20013 1.9084,-0.12521 3.59798,0.18626 5.07502,0.6786 -1.27921,-2.00913 -2.74103,-4.54671 -5.07502,-5.63291 z m -8.72305,12.38666 c -2.00912,1.27921 -4.54685,2.74102 -5.63304,5.07501 0.72502,7.72267 6.93247,13.85672 14.69346,14.44722 -3.93874,-3.40024 -4.92347,-6.84672 -4.92347,-12.2625 l -1.61556,4.18498 c -1.70081,-1.67222 -2.85996,-3.88792 -3.20012,-6.3697 -0.12521,-1.90844 0.1864,-3.59795 0.67873,-5.07501 z m 26.27585,4.73765 c -3.40023,3.93873 -6.84658,4.92348 -12.26237,4.92348 l 4.18486,1.61555 c -1.67223,1.70086 -3.88791,2.86006 -6.36972,3.20027 -1.90843,0.1252 -3.59797,-0.1864 -5.07501,-0.67875 1.27922,2.0091 2.74103,4.54672 5.07501,5.63291 7.72266,-0.72501 13.8567,-6.93244 14.44723,-14.69346 z"
           id="path1208" />
      </g>
      <g
         transform="translate(33.067797,-2.6737288)"
         id="g1010">
        <circle
           r="20"
           cy="24"
           cx="24"
           style="opacity:1;fill:url(#linearGradient4723);fill-opacity:1;stroke:none;stroke-width:2;stroke-linecap:butt;stroke-linejoin:round;stroke-miterlimit:4;stroke-dasharray:none;stroke-opacity:1"
           id="circle984" />
        <path
           inkscape:connector-curvature="0"
           style="opacity:1;fill:none;stroke:#f4f5f5;stroke-width:2;stroke-linecap:round;stroke-linejoin:round;stroke-miterlimit:4;stroke-dasharray:none;stroke-opacity:1"
           d="M 37.5,28 C 37.5,28 35,38 24,38 14,38 10,29 10,25 l 3,2"
           id="path986" />
        <path
           inkscape:connector-curvature="0"
           style="opacity:0.2;fill:url(#linearGradient4182-1);fill-opacity:1;stroke:none;stroke-width:4;stroke-linecap:round;stroke-linejoin:round;stroke-miterlimit:4;stroke-dasharray:none;stroke-opacity:1"
           d="M 24.398438,9.5566406 17.976562,11.113281 13.228516,14.841797 9.6035156,20.505859 31.585938,42.490234 A 20,20 0 0 0 44,24 20,20 0 0 0 43.953125,22.701172 l -9.501953,-9.501953 z"
           id="path988" />
        <path
           inkscape:connector-curvature="0"
           d="m 10.5,20 c 0,0 2.5,-10 13.5,-10 10,0 14,9 14,13 l -3,-2"
           style="opacity:1;fill:none;stroke:#f4f5f5;stroke-width:2;stroke-linecap:round;stroke-linejoin:round;stroke-miterlimit:4;stroke-dasharray:none;stroke-opacity:1"
           id="path990" />
        <path
           inkscape:connector-curvature="0"
           d="M 43.978516,23.417969 A 20,20 0 0 1 24,43 20,20 0 0 1 4.0214844,23.582031 20,20 0 0 0 4,24 20,20 0 0 0 24,44 20,20 0 0 0 44,24 20,20 0 0 0 43.978516,23.417969 Z"
           style="opacity:0.15;fill:#000000;fill-opacity:1;stroke:none;stroke-width:2;stroke-linecap:butt;stroke-linejoin:round;stroke-miterlimit:4;stroke-dasharray:none;stroke-opacity:1"
           id="path992" />
      </g>
    </g>
    <rect
       style="display:inline;fill:#00aad4;fill-opacity:1;stroke-width:1.42296147"
       id="rect829-9-1"
       width="58.000027"
       height="43.886189"
       x="387.57141"
       y="496.9119"
       ry="0" />
    <rect
       style="opacity:1;fill:#008080;fill-opacity:0.7292818;stroke:none;stroke-width:0.34976554"
       id="rect885"
       width="28.722004"
       height="43.886215"
       x="416.84943"
       y="496.9119" />
    <ellipse
       style="display:inline;opacity:1;fill:#333333;fill-opacity:1;stroke:none;stroke-width:0.37795275"
       id="path1085-6"
       cx="432.96747"
       cy="500.58691"
       rx="1.4142135"
       ry="1.4363106" />
    <ellipse
       style="opacity:1;fill:#4d4d4d;fill-opacity:1;fill-rule:nonzero;stroke:none;stroke-width:0.53286862;stroke-miterlimit:4;stroke-dasharray:none;stroke-opacity:1"
       id="path4641"
       cx="432.99789"
       cy="501.27295"
       rx="0.79091883"
       ry="0.77910471" />
    <ellipse
       style="opacity:1;fill:#333333;fill-opacity:1;stroke:none;stroke-width:0.37795275"
       id="path1085"
       cx="400.08359"
       cy="500.45435"
       rx="1.4142135"
       ry="1.4363106" />
    <ellipse
       style="display:inline;opacity:1;fill:#4d4d4d;fill-opacity:1;fill-rule:nonzero;stroke:none;stroke-width:0.54601437;stroke-miterlimit:4;stroke-dasharray:none;stroke-opacity:1"
       id="path4641-4"
       cx="400.16"
       cy="501.07858"
       rx="0.80849695"
       ry="0.80023432" />
    <path
       style="display:inline;opacity:1;fill:#4d4d4d;fill-opacity:0.62311557;fill-rule:nonzero;stroke:none;stroke-width:2.25029087;stroke-miterlimit:4;stroke-dasharray:none;stroke-opacity:1;filter:url(#filter934)"
       d="m 416.57533,524.9523 a 17.304129,17.304129 0 0 0 17.2168,-15.71289 h -1.58594 a 15.713139,15.713139 0 0 1 -15.63086,14.12305 15.713139,15.713139 0 0 1 -15.61523,-14.12305 h -1.60938 a 17.304129,17.304129 0 0 0 17.22461,15.71289 z"
       id="path917-5-9"
       inkscape:connector-curvature="0"
       transform="matrix(0.97981594,0,0,1,8.408104,-6)" />
    <path
       style="display:inline;opacity:1;fill:#4d4d4d;fill-opacity:1;fill-rule:nonzero;stroke:none;stroke-width:2.25029087;stroke-miterlimit:4;stroke-dasharray:none;stroke-opacity:1"
       d="m 416.57533,516.9523 a 17.304129,17.304129 0 0 0 17.2168,-15.71289 h -1.58594 a 15.713139,15.713139 0 0 1 -15.63086,14.12305 15.713139,15.713139 0 0 1 -15.61523,-14.12305 h -1.60938 a 17.304129,17.304129 0 0 0 17.22461,15.71289 z"
       id="path917-5"
       inkscape:connector-curvature="0" />
    <path
       style="display:inline;opacity:0.47000002;fill:url(#radialGradient1174);fill-opacity:1;fill-rule:nonzero;stroke:none;stroke-width:2.25029087;stroke-miterlimit:4;stroke-dasharray:none;stroke-opacity:1"
       d="m 416.57533,516.9523 a 17.304129,17.304129 0 0 0 17.2168,-15.71289 h -1.58594 a 15.713139,15.713139 0 0 1 -15.63086,14.12305 15.713139,15.713139 0 0 1 -15.61523,-14.12305 h -1.60938 a 17.304129,17.304129 0 0 0 17.22461,15.71289 z"
       id="path917-5-4"
       inkscape:connector-curvature="0" />
    <g
       transform="matrix(1.1011555,0,0,1.1011555,397.11917,493.34743)"
       id="g849">
      <path
         style="opacity:0.2;fill:url(#k)"
         inkscape:connector-curvature="0"
         id="path54"
         d="m 36,24 8,8 V 44 H 30 l -4,-4 1,-2 1,1 h 6 l -1,-1 2,-3 -5,-5 v -6 z" />
      <path
         style="fill:url(#l)"
         inkscape:connector-curvature="0"
         id="path56"
         d="m 30,24 v 6 h 1 v -5 h 4 v 5 h 1 V 24 H 31 Z M 27.793,31 27,31.816 33,38 39,31.816 38.207,31 33,36.367 Z M 26,38 v 2 h 14 v -2 h -1 v 1 H 27 v -1 z" />
    </g>
  </g>
</svg>
